# xmcd CD database file
#
# Track frame offsets:
#	150
#	33300
#	88562
#	159622
#	203108
#	249733
#	284799
#
# Disc length: 4274 seconds
#
# Revision: 1
# Processed by: cddbd v1.4PL0 Copyright (c) Steve Scherf et al.
# Submitted via: CDex 1.50
#
DISCID=6110b007
DTITLE=St Germaine - Boulevard
DYEAR=1900
DGENRE=Jazz
TTITLE0=Deep
TTITLE1=Thank you Mum (4 everything)
TTITLE2=Secret Scene 4 Shazz)
TTITLE3=Easy to Remember
TTITLE4=Sentimental Mood
TTITLE5=What's New
TTITLE6=Forget
EXTD=
EXTT0=
EXTT1=
EXTT2=
EXTT3=
EXTT4=
EXTT5=
EXTT6=
PLAYORDER=
